<?xml version="1.0" standalone="no"?>
<!DOCTYPE svg PUBLIC "-//W3C//DTD SVG 20010904//EN"
 "http://www.w3.org/TR/2001/REC-SVG-20010904/DTD/svg10.dtd">
<svg version="1.0" xmlns="http://www.w3.org/2000/svg"
 width="120.000000pt" height="120.000000pt" viewBox="0 0 120.000000 120.000000"
 preserveAspectRatio="xMidYMid meet">

<g transform="translate(0.000000,120.000000) scale(0.100000,-0.100000)"
fill="#000000" stroke="none">
<path d="M511 1063 c0 -31 2 -34 9 -18 12 28 12 55 0 55 -5 0 -10 -17 -9 -37z"/>
<path d="M550 1050 c0 -5 5 -10 10 -10 6 0 10 5 10 10 0 6 -4 10 -10 10 -5 0
-10 -4 -10 -10z"/>
<path d="M470 1001 c0 -6 4 -13 10 -16 6 -3 7 1 4 9 -7 18 -14 21 -14 7z"/>
<path d="M542 981 c-9 -26 -16 -32 -29 -27 -15 6 -16 5 -5 -6 10 -10 16 -8 33
9 12 11 19 29 17 39 -3 14 -7 11 -16 -15z"/>
<path d="M667 950 c-3 -8 -8 -36 -12 -62 -3 -27 -9 -48 -12 -48 -3 0 -20 10
-37 23 -17 13 -37 27 -43 31 -21 12 -15 -13 8 -32 32 -27 40 -48 29 -77 -8
-20 -7 -30 5 -41 19 -20 20 -41 1 -25 -11 10 -16 8 -20 -7 -8 -24 -64 -78 -72
-69 -4 3 7 20 25 36 18 17 31 39 31 53 0 22 -4 24 -30 20 -24 -3 -30 0 -31 14
-2 33 2 59 12 69 11 11 12 45 1 45 -5 0 -18 -17 -30 -38 -28 -51 -33 -172 -9
-219 10 -18 17 -40 17 -50 0 -10 13 -40 28 -67 28 -52 64 -72 110 -61 l23 6
-26 43 c-14 23 -25 50 -25 59 0 10 -8 17 -17 17 -13 0 -9 6 12 18 17 10 47 40
69 66 31 38 41 62 52 119 17 85 18 120 4 112 -6 -4 -10 6 -10 22 0 22 -2 25
-10 13 -5 -8 -10 -25 -10 -38 0 -13 -4 -20 -10 -17 -5 3 -8 18 -6 33 4 35 -9
74 -17 52z m50 -132 c-3 -8 -6 -5 -6 6 -1 11 2 17 5 13 3 -3 4 -12 1 -19z
m-42 -38 c3 -5 2 -10 -4 -10 -5 0 -13 5 -16 10 -3 6 -2 10 4 10 5 0 13 -4 16
-10z m-5 -60 c13 -8 13 -10 -2 -10 -9 0 -20 5 -23 10 -8 13 5 13 25 0z"/>
<path d="M217 416 c-44 -16 -77 -43 -77 -62 0 -15 50 -44 74 -44 8 0 18 -5 21
-10 10 -16 -64 -43 -98 -36 -20 4 -27 2 -25 -7 3 -6 24 -13 49 -15 49 -3 109
26 109 53 0 14 -34 34 -82 49 -42 13 4 47 70 52 48 3 57 7 47 23 -8 15 -42 13
-88 -3z"/>
<path d="M337 373 c-77 -128 -85 -166 -22 -97 36 39 40 35 18 -23 -9 -24 55
-19 74 5 12 16 14 16 24 0 12 -21 88 -25 107 -6 10 10 15 10 21 -1 5 -8 18
-12 30 -8 12 3 23 2 25 -2 7 -11 75 -4 91 9 11 9 15 9 15 1 0 -14 37 -15 45
-1 5 8 12 7 22 -2 20 -16 54 -12 70 9 12 15 14 15 31 0 20 -19 97 -23 107 -7
4 6 13 5 24 -2 19 -12 51 -5 51 11 0 5 -9 7 -21 4 -20 -6 -20 -5 -5 32 20 47
21 45 -10 45 -36 0 -61 -16 -79 -50 -16 -30 -38 -39 -50 -20 -4 6 5 20 19 31
14 11 26 27 26 36 0 12 -7 9 -27 -11 -14 -14 -28 -25 -30 -22 -2 2 10 27 27
55 30 52 38 77 21 67 -5 -3 -30 -42 -55 -85 -26 -44 -53 -82 -61 -85 -31 -11
-25 17 13 62 21 26 47 59 57 74 16 26 16 28 0 34 -24 10 -70 -40 -96 -102 -20
-47 -44 -73 -56 -60 -2 2 6 20 18 40 28 48 11 46 -35 -5 -41 -46 -60 -46 -27
-1 23 34 26 42 11 42 -6 0 -17 -15 -26 -33 -17 -37 -54 -67 -54 -45 1 28 46
93 68 96 22 3 32 22 11 22 -5 0 -8 4 -4 9 3 5 1 12 -5 16 -6 3 -13 -1 -16 -9
-3 -9 -17 -16 -29 -16 -13 0 -27 -4 -30 -10 -3 -5 1 -10 9 -10 20 0 21 1 -10
-54 -26 -46 -52 -63 -40 -26 3 11 9 28 12 38 13 41 -73 17 -100 -28 -17 -30
-39 -39 -51 -20 -3 5 5 16 19 25 23 16 41 43 32 52 -2 2 -16 -7 -31 -22 -16
-14 -30 -23 -32 -21 -2 2 10 25 26 52 32 49 37 64 23 64 -4 0 -25 -30 -47 -67
-21 -38 -45 -76 -53 -85 -25 -30 -32 -9 -10 28 27 46 12 63 -27 32 -31 -24
-29 -18 17 49 30 45 33 53 19 53 -5 0 -25 -26 -44 -57z m513 -13 c-30 -38 -49
-54 -34 -27 19 32 57 77 62 73 2 -3 -10 -23 -28 -46z m-280 -49 c0 -12 -51
-53 -58 -46 -6 6 38 55 50 55 4 0 8 -4 8 -9z m433 -23 c-18 -18 -35 -30 -38
-27 -7 8 44 59 59 59 6 0 -4 -14 -21 -32z"/>
</g>
</svg>
